{"title":"Gangster.Exchange.2010.BRRip.XviD.Ac3.Feel-Free","uid":6967437,"size":1253197585,"categoryP":"video","categoryS":"movies","magnet":"?xt=urn:btih:e33f29dd56f1c6252dda6fb7f2bce600a666e074&amp;dn=Gangster.Exchange.2010.BRRip.XviD.Ac3.Feel-Free&amp;tr=udp%3A%2F%2Ftracker.openbittorrent.com%3A80&amp;tr=udp%3A%2F%2Fopen.demonii.com%3A1337&amp;tr=udp%3A%2F%2Ftracker.coppersurfer.tk%3A6969&amp;tr=udp%3A%2F%2Fexodus.desync.com%3A6969","seeders":0,"leechers":1,"uploader":".BONE.","files":8,"time":1326974019,"description":"Genre: Action\nLanguage:English\n &lt;a href=&quot;\nhttp://www.imdb.com/title/tt0846004/&quot; rel=&quot;nofollow&quot; target=&quot;_NEW&quot;&gt;\nhttp://www.imdb.com/title/tt0846004/&lt;/a&gt;\n\nSource:720p.BluRay.X264-7SinS Thanks!\n\nFormat : AVI\nFormat/Info : Audio Video Interleave\nFile size : 1.17 GiB\nDuration : 1h 33mn\nOverall bit rate : 1 789 Kbps\n\nVideo\nID : 0\nFormat : MPEG-4 Visual\nFormat profile : Advanced Simple@L5\nFormat settings, BVOP : 1\nFormat settings, QPel : No\nFormat settings, GMC : No warppoints\nFormat settings, Matrix : Default (H.263)\nCodec ID : XVID\nCodec ID/Hint : XviD\nDuration : 1h 33mn\nBit rate : 1 331 Kbps\nWidth : 640 pixels\nHeight : 360 pixels\nDisplay aspect ratio : 16:9\nFrame rate : 23.976 fps\nColor space : YUV\nChroma subsampling : 4:2:0\nBit depth : 8 bits\nScan type : Progressive\nCompression mode : Lossy\nBits/(Pixel*Frame) : 0.241\nStream size : 889 MiB (74%)\nWriting library : XviD 1.2.1 (UTC 2008-12-04)\n\nAudio\nID : 1\nFormat : AC-3\nFormat/Info : Audio Coding 3\nMode extension : CM (complete main)\nCodec ID : 2000\nDuration : 1h 33mn\nBit rate mode : Constant\nBit rate : 448 Kbps\nChannel(s) : 6 channels\nChannel positions : Front: L C R, Side: L R, LFE\nSampling rate : 48.0 KHz\nBit depth : 16 bits\nCompression mode : Lossy\nStream size : 299 MiB (25%)\nAlignment : Split accross interleaves\nInterleave, duration : 42 ms (1.00 video frame)\nInterleave, preload duration : 500 ms\n\n\nPlot:\nKarate meets Kalashnikovs as the uncontrollable force and the immovable object are thrown together in this bloody hilarious action comedy\n","torrent":{"xt":"urn:btih:e33f29dd56f1c6252dda6fb7f2bce600a666e074","amp;dn":"Gangster.Exchange.2010.BRRip.XviD.Ac3.Feel-Free","amp;tr":["udp%3A%2F%2Ftracker.openbittorrent.com%3A80","udp%3A%2F%2Fopen.demonii.com%3A1337","udp%3A%2F%2Ftracker.coppersurfer.tk%3A6969","udp%3A%2F%2Fexodus.desync.com%3A6969"],"infoHash":"e33f29dd56f1c6252dda6fb7f2bce600a666e074","infoHashBuffer":{"type":"Buffer","data":[227,63,41,221,86,241,198,37,45,218,111,183,242,188,230,0,166,102,224,116]},"announce":[],"urlList":[]}}